<?xml version="1.0" encoding="utf-8"?>
<!-- Generator: Adobe Illustrator 24.3.0, SVG Export Plug-In . SVG Version: 6.00 Build 0)  -->
<svg version="1.1" id="Capa_1" xmlns="http://www.w3.org/2000/svg" xmlns:xlink="http://www.w3.org/1999/xlink" x="0px" y="0px"
	 viewBox="0 0 512 512" style="enable-background:new 0 0 512 512;" xml:space="preserve">
<path d="M352,0H160C71.7,0,0,71.7,0,160v192c0,88.3,71.7,160,160,160h192c88.3,0,160-71.7,160-160V160C512,71.7,440.3,0,352,0z
	 M464,352c0,61.8-50.2,112-112,112H160c-61.8,0-112-50.2-112-112V160C48,98.2,98.2,48,160,48h192c61.8,0,112,50.2,112,112V352z
	 M256,128c-70.7,0-128,57.3-128,128s57.3,128,128,128s128-57.3,128-128S326.7,128,256,128z M256,336c-44.1,0-80-35.9-80-80
	s35.9-80,80-80s80,35.9,80,80S300.1,336,256,336z M410.7,118.4c0,9.4-7.6,17.1-17.1,17.1c-9.4,0-17.1-7.6-17.1-17.1
	c0-9.4,7.6-17.1,17.1-17.1C403,101.3,410.7,109,410.7,118.4z"/>
</svg>
