<svg version="1.1" id="Layer_2" xmlns="http://www.w3.org/2000/svg" xmlns:xlink="http://www.w3.org/1999/xlink" x="0px" y="0px"
	 viewBox="0 0 316.8 246.9" style="enable-background:new 0 0 316.8 246.9;" xml:space="preserve">
<path d="M123.3,27c-4.4,1.2-13.4-2.9-17.9-3.7c-3.5-0.6-10.8-1.1-14.1,0c-3.7,1.2-13,8.6-13,8.6s-14.6,15-19,20.4
	c-7,8.4-20.3,25.9-26.1,35.2c-5.5,8.8-14.4,27.5-19,36.8c-3.3,6.7-9.7,20.3-12,27.4C1.4,154.2,0,161.9,0,161.9s9.7,15,13.6,19.5
	c3.1,3.6,10.2,9.8,13.6,13c2.1,2,6.1,6.1,8.2,8c1.9,1.7,5.5,5.4,7.6,6.8c2,1.3,6.4,3.2,8.7,3.7c2.5,0.5,7.5,0,10.1,0
	c1.2,0,4.6,0,4.6,0s-1.9-15.3-1.6-20.4c0.8-17.3,12-68.2,12-68.2l46.7-6.2V82.6c0,0,5.8,6.1,7.1,8.6c1.4,2.8,2.7,12.4,2.7,12.4
	l2.7,14.5l56.5-5.2l19.6-0.6c0,0,1.4-16.4,0-21.6c-0.8-2.9-3.3-11.7-3.3-11.7s7.6,8.3,8.7,11.7c1,3.2,2.8,9.7,3.3,13
	c0.3,2.1,0,8.6,0,8.6l30.4,1.2l20.1,1.2c0,0-0.3,17.1,0,22.8c0.3,7.3,2.4,21.7,2.7,29c0.3,6.3,0,25.3,0,25.3s9.2-2.8,12-4.3
	c2.5-1.4,6.9-5.1,9.2-6.8c1.5-1.1,4.6-3.2,6-4.3c2.3-1.9,6.7-5.8,8.7-8c2-2.2,7.1-9.3,7.1-9.3s-3-19.3-5.4-25.3
	c-1.7-4.3-7.5-11.7-9.8-15.7c-3.4-6.1-9.2-18.8-12.5-25c-2.7-5.1-8.5-15.1-12-19.8c-2.8-3.8-9.4-10.7-12.5-14.2
	c-4.2-4.8-12.3-14.7-16.8-19.1c-4.6-4.5-14.2-13.1-19.6-16.7c-4.7-3.2-14.9-8.2-20.1-10.5c-5.1-2.3-15.8-5.8-21.2-7.4
	c-4.6-1.4-13.7-4.3-18.5-4.9c-3-0.4-9.1-0.8-12,0c-3.3,1-8.7,5.3-11.4,7.4c-2.5,1.9-7,6.4-9.2,8.6C133,19.4,127.1,26,123.3,27z"/>
<path d="M79.3,129.5c0,0-10.2,38.3-9.2,51.3c0.3,3.6,3,10.4,4.6,13.6c2.5,5,8.8,14.6,12.8,18.5c4.7,4.6,15.6,12,21.2,15.4
	c4.8,3,20.1,10.5,20.1,10.5s24.6,7.6,33.1,8c7,0.4,27.7-3.7,27.7-3.7s22.4-5.5,29.3-8.6c5.8-2.6,16.9-9.4,21.7-13.6
	c4.2-3.6,11.2-12.3,14.7-16.7c3.1-3.9,9.9-11.4,11.4-16.1c1.6-5.1,0-16.2,0-21.6c0-4.2,0.2-12.5,0-16.7c-0.3-6.4-1.6-19.2-2.2-25.6
	c-0.1-1.3-0.5-5.3-0.5-5.3s-42-0.4-56,0c-10.7,0.3-32.2,1.7-42.9,2.5c-8.2,0.6-24.5,2.1-32.6,2.8C119.3,125.6,79.3,129.5,79.3,129.5
	z"/>
</svg>